<?xml version="1.0" standalone="no"?>
<!DOCTYPE svg PUBLIC "-//W3C//DTD SVG 20010904//EN"
 "http://www.w3.org/TR/2001/REC-SVG-20010904/DTD/svg10.dtd">
<svg version="1.0" xmlns="http://www.w3.org/2000/svg"
 width="114.000000pt" height="114.000000pt" viewBox="0 0 114.000000 114.000000"
 preserveAspectRatio="xMidYMid meet">
<metadata>
Created by potrace 1.14, written by Peter Selinger 2001-2017
</metadata>
<g transform="translate(0.000000,114.000000) scale(0.100000,-0.100000)"
fill="#000000" stroke="none">
<path d="M282 678 l3 -303 60 -17 c118 -33 264 -16 374 42 74 40 154 108 147
127 -3 8 -1 11 4 8 21 -13 91 121 116 223 3 9 21 12 66 10 l63 -3 -3 -40 c-19
-218 -223 -419 -470 -462 -100 -17 -226 -7 -313 26 l-49 19 0 -74 0 -74 425 0
425 0 0 410 0 410 -425 0 -425 0 2 -302z m813 207 c9 -41 14 -78 12 -82 -3 -5
-32 -7 -65 -5 l-59 4 -12 56 c-7 31 -15 67 -18 80 -5 21 -2 22 60 22 l65 0 17
-75z m-412 -94 c126 -81 120 -268 -12 -338 -145 -76 -323 60 -281 215 36 135
179 195 293 123z"/>
<path d="M20 586 c0 -4 14 -35 32 -68 33 -63 101 -130 176 -174 l42 -25 0 28
c0 23 -9 33 -53 58 -28 16 -58 29 -65 28 -7 0 -11 2 -8 5 3 3 -13 26 -37 51
-23 25 -52 60 -64 76 -12 17 -23 26 -23 21z"/>
</g>
</svg>
