<?xml version="1.0" encoding="utf-8"?>
<!-- Generator: Adobe Illustrator 26.1.0, SVG Export Plug-In . SVG Version: 6.00 Build 0)  -->
<svg version="1.1" id="Layer_1" xmlns="http://www.w3.org/2000/svg" xmlns:xlink="http://www.w3.org/1999/xlink" x="0px" y="0px"
	 viewBox="0 0 497 522" style="enable-background:new 0 0 497 522;" xml:space="preserve">
<style type="text/css">
	.st0{fill:#603813;}
	.st1{fill:#FFFFFF;}
</style>
<g>
	<rect x="-0.25" y="0.47" class="st0" width="497.37" height="521.04"/>
	<g>
		<g>
			<path class="st1" d="M255.25,336.52c1.62,10.27,6.73,18.11,12.96,26.15c-6.31-1.68-10.83-4.77-14.13-9.51
				c-1.48-2.13-2.69-4.52-3.65-6.95c-2.64-6.67-5.19-8.47-12.4-8.7c-11.56-0.38-22.64,2.07-33.56,5.51
				c-4.6,1.45-9.14,3.05-13.72,4.56c-0.86,0.28-1.76,0.43-3.31,0.79c0.69-0.98,0.89-1.47,1.25-1.73
				c11.91-8.64,24.7-15.27,39.44-17.64c17.37-2.79,33.4,0.94,48.57,9.41c3.44,1.92,6.88,3.9,10.52,5.36
				c8.04,3.24,14.59-0.27,16.97-9.1c-2.97-0.28-5.9-0.54-8.82-0.83c-6.41-0.63-12.76-1.56-18.23-5.28c-2.21-1.5-4.13-3.42-6.19-5.15
				c0.13-0.19,0.25-0.38,0.38-0.57c4.9,1.79,9.79,3.6,14.7,5.38c7.47,2.72,14.96,3.26,22.11-0.74c2.94-1.64,5.63-3.87,8.12-6.16
				c2.73-2.51,3.5-5.86,2.35-9.42c-1.35-4.16-2.9-8.26-4.37-12.38c-0.31-0.88-0.64-1.75-1.12-3.07c4.66,1.73,8.87,3.35,13.14,4.82
				c0.82,0.28,1.85-0.07,2.79-0.14c-0.12-0.91,0.05-2.01-0.41-2.7c-6.65-10.09-12.83-20.49-21.19-29.39
				c-4.93-5.24-7.02-11.84-6.74-19.09c0.22-5.66-1.47-10.54-5.83-14.32c-10.07-8.72-20.14-17.44-30.22-26.16
				c-1.22-1.05-2.44-2.1-3.66-3.15c0.12-0.2,0.24-0.41,0.36-0.61c3.65,1.36,7.29,2.72,11.14,4.16c0.73-3.07,0.25-5.72-1.7-7.92
				c-2.63-2.96-6.2-4.5-10.01-4.49c-1.71,0-3.42,1.8-5.51,3.01c-0.05-0.08-0.51-0.74-0.92-1.42c-1.25-2.11-2.32-4.34-3.74-6.32
				c-2.15-3-4.47-3.65-7.78-2.03c-2.74,1.34-5.35,2.99-7.89,4.7c-11.86,7.97-23.67,16.01-35.51,24.02
				c-0.62,0.42-1.26,0.79-2.15,0.89c2.29-3.28,4.57-6.56,7.27-10.42c-4.88,1.47-9.22,2.63-13.43,4.11
				c-3.03,1.07-5.92,2.02-9.19,1.02c-0.79-0.24-1.98,0.37-2.84,0.84c-4.49,2.47-8.93,5.02-13.55,7.34c1.28-3.29,2.56-6.24,6.2-7.82
				c7.92-3.43,15.92-6.38,24.54-7.45c1.44-0.18,2.79-1.07,4.24-1.33c1.59-0.28,3.41-0.68,4.82-0.16c2.73,0.99,4.49,0.06,6.53-2.38
				c-13.58-1.46-25.86,2.58-38.28,6.16c1.87-4.96,6.44-9.31,11.24-10.07c10.72-1.7,21.48-3.16,32.23-4.68
				c6.37-0.9,12.19-3.13,17.36-7c0.91-0.68,1.82-1.38,2.77-2c6.38-4.16,11.24-4.08,17,0.9c2.99,2.58,6.08,4.01,10,4.57
				c7.64,1.08,13.14,5.44,14.75,13.07c1.54,7.34,6.21,12.15,11.21,16.99c4.09,3.97,8.18,7.94,12.14,12.04
				c4.07,4.22,5.86,9.21,4.84,15.15c-0.91,5.36,1.04,10.05,4.04,14.3c5.06,7.16,10.31,14.18,15.37,21.35
				c2.63,3.72,5.1,7.56,7.48,11.44c3.95,6.42,3.8,11.17-1.25,16.79c-5.14,5.73-10.99,10.82-16.14,16.54
				c-3.12,3.47-6.34,7.26-8.03,11.5c-3.51,8.8-12.7,11.74-19.55,9.65c-5.82-1.78-11.28-4.71-16.91-7.1
				C266.69,341.32,261.22,339.03,255.25,336.52z"/>
			<path class="st1" d="M297.35,273.87c-4.28-0.62-8.73-1.31-13.19-1.88c-3.91-0.5-7.31-1.83-9.09-4.8
				c-0.95,1.04-1.77,2.36-2.94,3.15c-3.26,2.2-6.66,4.23-10.04,6.25c-2.29,1.37-4.59,1.79-7.23,0.56c-3.24-1.51-6.35-0.69-9.1,1.49
				c-1.03,0.82-1.94,1.78-2.98,2.58c-2.76,2.15-4.97,2.01-7.01-0.75c-2.03-2.74-4.62-3-7.47-2.11c-3.51,1.1-6.89,2.6-10.42,3.61
				c-1.89,0.54-3.97,0.43-5.98,0.61c-0.55-3.28,0.22-5.11,2.75-6.4c2.94-1.5,5.84-2.5,9.23-2.51c7.52-0.03,14.49-2.27,20.93-6.14
				c3.27-1.97,6.48-4.26,10.25-0.89c0.31,0.27,1.21,0.11,1.73-0.11c4.09-1.73,8.12-3.61,12.24-5.27c6.11-2.46,12.52-3.22,19.02-2.38
				c2.88,0.37,4.82,2.47,5.84,5.17C295.2,267.48,296.34,270.97,297.35,273.87z"/>
			<path class="st1" d="M205.32,310.9c3.77-6.8,7.86-12.13,15.36-14.13c7.35-1.96,14.6-4.34,21.8-6.8
				c5.29-1.81,10.36-2.05,15.6,0.16c2.39,1.01,5.06,1.36,7.59,2.07c3.7,1.04,6.95,2.61,8.98,6.24c1.68,3.01,4.06,3.85,7.39,3.01
				c5.34-1.35,10.64-2.9,15.97-4.32c3.28-0.88,3.29-0.85,5.02,2.17c-6.76,2.83-13.5,6-21.11,5c-3.53-0.46-7.06-1.28-10.44-2.39
				c-4.92-1.61-9.74-2.05-14.65-0.21c-7.69,2.88-15.74,3.21-23.81,3.45c-8.19,0.24-16.27,0.95-23.72,4.88
				C208.29,310.55,207.01,310.55,205.32,310.9z"/>
			<path class="st1" d="M197.55,230.92c-1.28,1.42-2.28,2.75-3.49,3.83c-3.03,2.72-4.78,6.08-4.96,10.1
				c-0.17,3.83-1.98,6.57-4.79,8.94c-7.01,5.94-13.98,11.93-20.92,17.94c-3.26,2.83-4.35,3.01-10.09,0.91
				c0.51-6,0.98-12.18,1.64-18.33c0.09-0.83,1.04-1.88,1.86-2.27c3.07-1.47,6.23-2.75,9.39-4.04c8.46-3.45,16.17-7.91,21.96-15.26
				C190.65,229.57,193.32,229.15,197.55,230.92z"/>
			<path class="st1" d="M225.82,208.5c-0.13,0.78-0.03,1.71-0.42,2.31c-3.44,5.23-3.61,10.84-2.94,16.89
				c0.71,6.51,0.56,13.12,0.64,19.68c0.01,1.05-0.71,2.12-1.09,3.18c-0.27,0.01-0.54,0.02-0.81,0.02c-0.65-1.07-1.39-2.1-1.95-3.22
				c-1.29-2.59-2.5-3.06-5.03-1.74c-1.32,0.69-2.51,1.64-3.88,2.2c-2.88,1.18-6.02-0.48-6.46-3.45c-3.76,1.07-7.5,2.13-11.49,3.26
				c0.17-4.6,2.1-7.9,5.7-9.98c4.71-2.71,7.59-6.7,9.9-11.52c1.55-3.24,3.85-6.27,6.37-8.85c3.23-3.29,7.03-6.03,10.59-9
				C225.24,208.36,225.53,208.43,225.82,208.5z"/>
			<path class="st1" d="M212,267.41c-2.04,4.59-3.78,8.3-5.34,12.08c-2.58,6.22-5.08,12.48-7.54,18.74
				c-2.2,5.59-5.14,7.56-11.06,7.16c-3.31-0.23-5.98-1.75-7.3-4.8c-1.09-2.52-1.64-5.27-2.6-8.46c2.45,0.52,4.28,0.92,6.13,1.3
				c6.49,1.34,9.1-0.56,9.39-7.18c0.35-7.95,4.62-13.2,11.32-16.71C206.91,268.54,209.2,268.24,212,267.41z"/>
			<path class="st1" d="M229.41,231.99c-1.98-5.44-1.74-10.79-0.43-16.12c1.8-7.3,5-13.85,10.94-18.7
				c5.81-4.74,10.22-3.19,12.03,4.1c1.98,7.99-3.55,15.85-11.8,16.53c-1.46,0.12-3-0.65-4.82-1.09
				C233.42,221.64,231.42,226.81,229.41,231.99z"/>
			<path class="st1" d="M282.85,235.78c1.93,1.76,4.05,3.37,5.66,5.39c0.44,0.55-0.65,2.33-1.17,3.95c-2.45-2.67-5.77-4-5.22-8.07
				c-0.7-0.21-1.34-0.43-1.99-0.58c-3.78-0.84-5.72-3.55-6.81-6.96c-0.79-2.48-2.2-4.25-4.4-5.61c-5.21-3.21-10.33-6.55-15.49-9.84
				c1.54-2.94,3.26-3.59,6.22-2.17c6.3,3.03,11.12,7.84,15.45,13.18c1.99,2.45,3.94,4.92,5.78,7.48c0.77,1.07,1.21,2.37,1.81,3.57
				C282.74,236,282.79,235.89,282.85,235.78z"/>
			<path class="st1" d="M313.38,320.29c-2.97,1.33-5.52,1.22-8.07-0.21c-5.94-3.33-11.92-6.59-17.88-9.9
				c-0.44-0.25-0.8-0.64-1.59-1.29c5.14-1.69,9.94-3.27,15.49-5.1c-0.83,1.91-1.28,3.19-1.93,4.36c-1.78,3.22-1.39,4.61,2.19,5.56
				C306,314.89,309.76,317.1,313.38,320.29z"/>
			<path class="st1" d="M314.03,294.65c-8.13-0.18-12.46-6.03-11.54-15.39C306.36,284.42,310.05,289.34,314.03,294.65z"/>
			<path class="st1" d="M297.34,264.22c-2.95-5.58-5.67-10.72-8.7-16.46c4.27,1.14,7.14,3.1,8.92,6.54
				C299.19,257.46,299.15,260.61,297.34,264.22z"/>
			<path class="st1" d="M261.07,248.35c0.59,3.16,1.09,5.72,1.54,8.28c0.25,1.39-0.2,2.39-1.7,2.72c-2.17,0.47-4.58,1.72-6.28-0.49
				c-0.55-0.71-0.15-2.75,0.52-3.68C256.74,252.92,258.75,250.96,261.07,248.35z"/>
			<path class="st1" d="M272.55,248.22c8.84-1.49,10.19-0.86,13.48,6.46c-4.44-1.25-8.5-2.29-12.47-3.61
				C273.02,250.89,272.92,249.35,272.55,248.22z"/>
			<path class="st1" d="M264.19,237.22c-3.98-1.34-7.41-2.49-11.15-3.75c1.8-2.08,3.79-3.22,6.24-2.7
				C262.34,231.42,263.23,234.05,264.19,237.22z"/>
			<path class="st1" d="M259.24,306.71c-2.57,6.83-2.84,7.02-8.84,6.43C251.46,310.61,257.45,306.14,259.24,306.71z"/>
			<path class="st1" d="M251.98,231.89c-3.5,2.84-4.37,2.91-6.03,0.76c-1.83-2.37-0.29-3.53,1.7-4.79
				C249.08,229.19,250.52,230.53,251.98,231.89z"/>
		</g>
		<path class="st1" d="M382.22,278.67l-1.51,15.91c-0.11,0.65-0.17,1.31-0.29,1.96c-2.57,13.34-6.58,26.25-13.07,38.23
			c-3.46,6.4-7.5,12.48-11.28,18.7c-0.1,0.04-0.2,0.08-0.3,0.11l-0.76,1.13l-0.5-0.65c0,0-0.01,0-0.01,0
			c-1.69-2.11-3.2-4.41-5.12-6.28c-1.66-1.61-1.63-2.87-0.41-4.6c15.27-21.74,22.33-46.02,22.24-72.46
			c-0.01-2.69,0.97-3.45,3.51-3.39c5.78,0.13,11.56-0.04,17.34,0.07c2.49,0.05,3.52-0.92,3.2-3.36c-0.32-2.5-0.79-4.98-0.95-7.49
			c-0.68-10.56-3.29-20.72-6.63-30.67c-2.52-7.49-5.56-14.74-9.22-21.65c-0.12-0.24-0.27-0.49-0.4-0.73c-1.61-3-3.35-5.94-5.2-8.81
			c-5.1-7.71-11.21-14.92-16.98-21.03c-2.42,2.42-4.84,4.84-7.28,7.25c-1.61,1.59-0.4,2.61,0.47,3.72
			c3.15,4.05,6.51,7.96,9.48,12.14c9.45,13.32,15.86,28.08,19.97,43.83c1.15,4.4,1.72,8.96,2.63,13.88c-3.35,0-6.06-0.1-8.76,0.03
			c-1.96,0.1-2.6-0.65-3.08-2.56c-1.88-7.51-3.54-15.14-6.21-22.39c-6.42-17.37-16.6-32.4-29.98-45.23
			c-0.64-0.62-1.16-1.37-2.17-2.58c5.67-5.29,11.18-10.44,17.1-15.97c-6.75-6.46-11.79-10.51-12.17-10.81
			c-11.29-8.44-23.48-15.35-36.96-19.79c-8.72-2.87-17.72-4.84-26.58-7.28l-1.82,12.93c1.26,0.19,2.52,0.4,3.77,0.66
			c15.61,3.23,30.41,8.72,44.01,17.15c3.59,2.23,7.01,4.74,11.41,7.73c-2.54,2.16-4.64,3.62-6.31,5.47
			c-1.82,2.02-3.14,1.86-5.27,0.34c-9.62-6.86-20.15-12.07-31.37-15.73c-13.27-4.33-26.9-6.51-40.89-5.97
			c-2.31,0.09-3.17-0.61-3.11-3.01c0.14-6.09-0.02-12.19,0.07-18.29c0.03-2.3-0.72-3.4-3.13-2.98c-10,1.73-20.13,2.94-29.98,5.28
			c-8.96,2.13-17.44,5.27-25.51,9.23c-0.23,0.12-0.46,0.24-0.69,0.35c-1.43,0.71-2.84,1.46-4.25,2.22
			c-0.71,0.39-1.43,0.78-2.13,1.17c-1.34,0.76-2.66,1.53-3.97,2.33c-0.98,0.6-1.95,1.21-2.9,1.83c-0.36,0.23-0.72,0.47-1.08,0.7
			c-7.78,5.11-14.57,10.61-20.36,16c2.48,2.48,4.96,4.96,7.48,7.4c0.57,0.55,2.6,0.35,3.43-0.24c2.9-2.05,5.51-4.52,8.35-6.66
			c13.81-10.42,29.18-17.74,45.82-22.31c5.01-1.37,10.19-2.12,15.85-3.26c0,3.84,0.1,7.07-0.09,10.28
			c-0.04,0.61-1.13,1.48-1.87,1.67c-5.27,1.36-10.63,2.35-15.85,3.86c-15.42,4.47-29.17,12.13-41.44,22.45
			c-4.38,3.68-8.54,7.63-13.32,11.92c-4.7-4.88-9.42-9.64-13.97-14.57c-1.37-1.48-2.38-1.94-3.54-1.3
			c-4.01,4.38-7.3,8.45-9.86,11.87c-13.53,18.58-22.35,39.37-26.42,62.43l-51.48,18.57h62.77l1.61-16.91
			c2.53-13.34,6.3-26.32,12.86-38.29c3.69-6.74,7.79-13.27,11.59-19.69c3.26,2.98,5.98,5.47,8.45,7.73
			c-3.65,6.24-7.41,11.94-10.46,18.01c-9.06,18.03-13.44,37.2-12.83,57.42c0.08,2.62-0.86,3.16-3.29,3.09
			c-5.99-0.17-11.98-0.04-17.97-0.05c-2.17-0.01-3.48,0.78-3.06,3.19c1.81,10.53,2.95,21.23,5.61,31.54
			c1.65,6.36,3.74,12.55,6.3,18.52l0,0c0,0,0,0.01,0,0.01c4.23,9.89,9.73,19.19,16.51,27.69c0.74,0.93,1.35,1.81,1.89,2.68
			c2.63,3.29,5.59,6.71,8.9,10.19c2.47-2.46,4.93-4.94,7.42-7.38c1.81-1.77,0.31-2.72-0.59-3.92c-4.31-5.79-8.9-11.4-12.85-17.42
			c-9.56-14.59-15.07-30.82-18.51-47.81c-0.7-3.46-0.23-4.13,3.26-4.18c1.16-0.02,2.33,0.13,3.47-0.03
			c3.14-0.43,4.35,0.89,4.92,4.01c1.93,10.56,5.31,20.68,9.97,30.37c6.48,13.48,15.26,25.29,25.95,35.68
			c1.73,1.68,1.43,2.6-0.09,4.01c-2.68,2.51-5.23,5.16-7.83,7.77c-2.2,2.2-4.41,4.45-6.89,6.96c8.02,7.33,17.65,14.68,29.16,21.44
			c13.88,7.68,28.79,13.01,44.89,15.6c0.48,0.08,0.91,0.2,1.34,0.32l-0.02,0.18l18.57,51.48v-62.77l-16.34-1.56
			c-16.15-2.95-31.55-8.11-45.75-16.55c-4.37-2.6-8.54-5.53-13.09-8.48c3.02-2.99,5.58-5.54,8.28-8.22
			c23.23,16.86,49.28,24.32,77.95,23.84c0,6.84-0.01,13.24,0,19.63c0.01,4.06,0.02,4.06,3.93,3.99c12.5-0.24,24.58-2.93,36.38-6.78
			c4.06-1.33,8.04-2.83,11.93-4.49l-0.02,0.02c0,0,0.11-0.05,0.32-0.14c0.24-0.1,0.48-0.21,0.72-0.32c0.5-0.22,1.15-0.52,1.98-0.9
			c3.46-1.57,6.85-3.25,10.16-5.08c9.35-5,21.53-12.45,29.02-20.69c-1.64-1.63-3.28-3.27-4.92-4.9c-4.38-4.36-4.39-4.36-9.12-0.36
			c-12.81,10.82-27.25,18.83-43.09,24.14c-7.59,2.55-15.53,4.07-24.02,6.24c0-3.65,0.06-6.55-0.02-9.44
			c-0.05-1.83,0.78-2.4,2.49-2.89c8.95-2.55,18.07-4.74,26.7-8.13c15.64-6.13,28.99-15.91,40.63-27.98c1.74-1.8,2.8-1.45,4.35,0.15
			c4.23,4.37,8.63,8.57,12.88,12.92c1.42,1.46,2.54,1.61,3.87-0.05c2.42-3.03,5.01-5.93,7.35-9.02c13.56-17.93,22.75-37.81,27-59.95
			c0.3-1.56,0.49-3.17,0.98-4.63l0.06,0.01L445,278.67H382.22z M248.44,383.04c-60.64,0-109.97-49.33-109.97-109.97
			s49.33-109.97,109.97-109.97s109.97,49.33,109.97,109.97S309.07,383.04,248.44,383.04z"/>
		<path class="st1" d="M284.83,144.08c0,0-15.83-4.45-31.06-4.82V56.01L284.83,144.08z"/>
		<g>
			<path class="st1" d="M395.68,410.99c0,1.76-0.44,3.41-1.32,4.93c-0.88,1.52-2.08,2.72-3.61,3.6c-1.52,0.88-3.17,1.32-4.93,1.32
				c-1.75,0-3.39-0.44-4.92-1.32c-1.52-0.88-2.72-2.08-3.61-3.6c-0.88-1.52-1.32-3.17-1.32-4.93c0-1.75,0.44-3.4,1.32-4.92
				c0.88-1.53,2.08-2.73,3.61-3.61c1.52-0.88,3.16-1.32,4.92-1.32c1.76,0,3.41,0.44,4.93,1.32c1.52,0.88,2.72,2.08,3.61,3.61
				C395.24,407.6,395.68,409.24,395.68,410.99z M393.77,410.99c0-2.19-0.78-4.07-2.33-5.62c-1.55-1.55-3.43-2.33-5.62-2.33
				s-4.07,0.78-5.62,2.33c-1.55,1.55-2.33,3.43-2.33,5.62c0,2.19,0.78,4.07,2.33,5.62c1.55,1.55,3.43,2.33,5.62,2.33
				s4.07-0.78,5.62-2.33C392.99,415.06,393.77,413.18,393.77,410.99z M381.36,405.73h4.71c1.33,0,2.3,0.27,2.9,0.81
				c0.6,0.54,0.9,1.26,0.9,2.16c0,0.71-0.23,1.32-0.68,1.83s-1.17,0.89-2.15,1.12c0.4,0.15,0.7,0.32,0.89,0.49
				c0.27,0.24,0.55,0.6,0.84,1.07c0.02,0.03,0.58,1.05,1.7,3.04h-3.1c-1.01-2-1.68-3.2-2.03-3.59s-0.69-0.59-1.03-0.59
				c-0.08,0-0.18,0.01-0.32,0.04v4.14h-2.62V405.73z M383.97,410.19h1.14c0.76,0,1.29-0.12,1.6-0.37c0.31-0.25,0.46-0.56,0.46-0.95
				s-0.15-0.7-0.45-0.95c-0.3-0.25-0.8-0.37-1.52-0.37h-1.24V410.19z"/>
		</g>
	</g>
</g>
</svg>
